<?xml version="1.0" encoding="UTF-8"?>
<svg height="128px" viewBox="0 0 128 128" width="128px" xmlns="http://www.w3.org/2000/svg" xmlns:xlink="http://www.w3.org/1999/xlink">
    <linearGradient id="a" gradientUnits="userSpaceOnUse">
        <stop offset="0" stop-color="#f9f06b"/>
        <stop offset="1" stop-color="#33d17a"/>
    </linearGradient>
    <radialGradient id="b" cx="40" cy="34.000031" r="120" xlink:href="#a"/>
    <radialGradient id="c" cx="40" cy="32.000031" r="120" xlink:href="#a"/>
    <radialGradient id="d" cx="48.00000028061" cy="39.99999401871" gradientUnits="userSpaceOnUse" r="79.999997">
        <stop offset="0" stop-color="#241f31" stop-opacity="0.4"/>
        <stop offset="1" stop-color="#241f31" stop-opacity="0"/>
    </radialGradient>
    <linearGradient id="e" gradientUnits="userSpaceOnUse">
        <stop offset="0" stop-color="#9a9996"/>
        <stop offset="0.4" stop-color="#deddda"/>
        <stop offset="1" stop-color="#77767b"/>
    </linearGradient>
    <linearGradient id="f" gradientTransform="matrix(0.707107 0.707107 -0.549972 0.549972 135.799002 -115.847758)" x1="112" x2="120" xlink:href="#e" y1="216" y2="216"/>
    <linearGradient id="g" gradientTransform="matrix(1 0 0 0.888889 0 -152)" gradientUnits="userSpaceOnUse" x1="112" x2="120" y1="216" y2="216">
        <stop offset="0" stop-color="#9a9996"/>
        <stop offset="0.5" stop-color="#deddda"/>
        <stop offset="1" stop-color="#77767b"/>
    </linearGradient>
    <linearGradient id="h" gradientUnits="userSpaceOnUse" x1="116" x2="116" y1="0" y2="24">
        <stop offset="0" stop-color="#c0bfbc"/>
        <stop offset="1" stop-color="#deddda"/>
    </linearGradient>
    <linearGradient id="i" gradientTransform="matrix(0.707107 0.707107 -1.414214 1.414214 427.12699 -381.719945)" x1="96" x2="100" xlink:href="#e" y1="295" y2="295"/>
    <linearGradient id="j" gradientTransform="matrix(0.707107 -0.707107 0.471405 0.471405 -110.866971 45.022466)" gradientUnits="userSpaceOnUse" x1="104" x2="106" y1="274" y2="274">
        <stop offset="0" stop-color="#3d3846" stop-opacity="0.980392"/>
        <stop offset="0.6" stop-color="#9a9996"/>
        <stop offset="1" stop-color="#5e5c64"/>
    </linearGradient>
    <linearGradient id="k" gradientTransform="matrix(0.707107 0.707107 -0.707107 0.707107 2.000002 -174)" gradientUnits="userSpaceOnUse" x1="245.729996" x2="257.730011" y1="132.509659" y2="132.509659">
        <stop offset="0" stop-color="#5e5c64"/>
        <stop offset="0.4" stop-color="#9a9996"/>
        <stop offset="1" stop-color="#3d3846" stop-opacity="0.980392"/>
    </linearGradient>
    <clipPath id="l">
        <rect height="128" width="128"/>
    </clipPath>
    <clipPath id="m">
        <rect height="128" width="128"/>
    </clipPath>
    <filter id="n" height="100%" width="100%" x="0%" y="0%">
        <feColorMatrix in="SourceGraphic" type="matrix" values="0 0 0 0 1 0 0 0 0 1 0 0 0 0 1 0 0 0 1 0"/>
    </filter>
    <mask id="o">
        <g clip-path="url(#m)" filter="url(#n)">
            <g clip-path="url(#l)">
                <path d="m 124 65 c 0 33.136719 -26.863281 60 -60 60 s -60 -26.863281 -60 -60 s 26.863281 -60 60 -60 s 60 26.863281 60 60 z m 0 0" fill="url(#b)"/>
                <path d="m 124 63 c 0 33.136719 -26.863281 60 -60 60 s -60 -26.863281 -60 -60 s 26.863281 -60 60 -60 s 60 26.863281 60 60 z m 0 0" fill="url(#c)"/>
                <path d="m 123.960938 63.511719 c -0.277344 32.921875 -27.035157 59.46875 -59.960938 59.488281 c -32.722656 -0.035156 -59.382812 -26.28125 -59.929688 -59 c -0.023437 0.332031 -0.050781 0.667969 -0.070312 1 c 0 33.136719 26.863281 60 60 60 s 60 -26.863281 60 -60 c -0.007812 -0.496094 -0.019531 -0.992188 -0.035156 -1.488281 z m 0 0" fill-opacity="0.2"/>
                <path d="m 64 47 c -8.835938 0 -16 7.164062 -16 16 s 7.164062 16 16 16 s 16 -7.164062 16 -16 s -7.164062 -16 -16 -16 z m 0 2 c 7.730469 0 14 6.269531 14 14 s -6.269531 14 -14 14 s -14 -6.269531 -14 -14 s 6.269531 -14 14 -14 z m 0 0" fill="#ffffff" fill-opacity="0.4"/>
                <path d="m 78 63 c 0 7.730469 -6.269531 14 -14 14 s -14 -6.269531 -14 -14 s 6.269531 -14 14 -14 s 14 6.269531 14 14 z m 0 0" fill="#ffffff" fill-opacity="0.2"/>
                <path d="m 67 63 c 0 1.65625 -1.34375 3 -3 3 s -3 -1.34375 -3 -3 s 1.34375 -3 3 -3 s 3 1.34375 3 3 z m 0 0" fill="#241f31"/>
                <path d="m 64 14 c -27.050781 0 -49 21.949219 -49 49 s 21.949219 49 49 49 s 49 -21.949219 49 -49 s -21.949219 -49 -49 -49 z m 0 2 c 25.96875 0 47 21.03125 47 47 s -21.03125 47 -47 47 s -47 -21.03125 -47 -47 s 21.03125 -47 47 -47 z m 0 0" fill="url(#d)"/>
                <path d="m 64 20 c -23.738281 0 -43 19.261719 -43 43 s 19.261719 43 43 43 s 43 -19.261719 43 -43 s -19.261719 -43 -43 -43 z m 0 2 c 22.65625 0 41 18.34375 41 41 s -18.34375 41 -41 41 s -41 -18.34375 -41 -41 s 18.34375 -41 41 -41 z m 0 0" fill="url(#d)"/>
                <path d="m 64 26 c -20.421875 0 -37 16.578125 -37 37 s 16.578125 37 37 37 s 37 -16.578125 37 -37 s -16.578125 -37 -37 -37 z m 0 2 c 19.339844 0 35 15.660156 35 35 s -15.660156 35 -35 35 s -35 -15.660156 -35 -35 s 15.660156 -35 35 -35 z m 0 0" fill="url(#d)"/>
                <path d="m 64 32 c -17.109375 0 -31 13.890625 -31 31 s 13.890625 31 31 31 s 31 -13.890625 31 -31 s -13.890625 -31 -31 -31 z m 0 2 c 16.027344 0 29 12.972656 29 29 s -12.972656 29 -29 29 s -29 -12.972656 -29 -29 s 12.972656 -29 29 -29 z m 0 0" fill="url(#d)"/>
                <path d="m 64 38 c -13.796875 0 -25 11.203125 -25 25 s 11.203125 25 25 25 s 25 -11.203125 25 -25 s -11.203125 -25 -25 -25 z m 0 2 c 12.714844 0 23 10.285156 23 23 s -10.285156 23 -23 23 s -23 -10.285156 -23 -23 s 10.285156 -23 23 -23 z m 0 0" fill="url(#d)"/>
                <path d="m 64 3 c -33.136719 0 -60 26.863281 -60 60 s 26.863281 60 60 60 s 60 -26.863281 60 -60 s -26.863281 -60 -60 -60 z m 0 4 c 30.929688 0 56 25.070312 56 56 s -25.070312 56 -56 56 s -56 -25.070312 -56 -56 s 25.070312 -56 56 -56 z m 0 0" fill="#ffffff" fill-opacity="0.4"/>
                <path d="m 116 10 c -2.214844 0 -4 1.785156 -4 4 v 54.34375 l -21.453125 21.453125 c -0.785156 -0.78125 -2.046875 -0.78125 -2.832031 0 l -11.3125 11.316406 c -0.785156 0.785157 -0.785156 2.042969 0 2.828125 l 1.414062 1.414063 l -2.828125 2.828125 c -0.785156 0.785156 -0.785156 2.042968 0 2.828125 c 0.785157 0.785156 2.042969 0.785156 2.828125 0 l 2.828125 -2.828125 l 1.414063 1.414062 c 0.785156 0.785156 2.042968 0.785156 2.828125 0 l 6.949219 -6.949218 l 2.121093 2.121093 c 0.394531 0.390625 1.023438 0.390625 1.417969 0 c 0.390625 -0.390625 0.390625 -1.023437 -0.003906 -1.414062 l -2.121094 -2.121094 l 2.949219 -2.949219 c 0.785156 -0.785156 0.785156 -2.046875 0.003906 -2.828125 l 22.625 -22.628906 c 0.804687 -0.804687 1.191406 -1.855469 1.171875 -2.902344 v -55.925781 c 0 -2.214844 -1.785156 -4 -4 -4 z m 0 0" fill-opacity="0.2"/>
                <path d="m 128 14 c 0 6.628906 -5.371094 12 -12 12 s -12 -5.371094 -12 -12 s 5.371094 -12 12 -12 s 12 5.371094 12 12 z m 0 0" fill="#c0bfbc"/>
                <path d="m 118.828125 65.171875 c 1.5625 1.5625 1.5625 4.09375 0 5.65625 l -33.941406 33.941406 c -1.5625 1.5625 -4.09375 1.5625 -5.65625 0 s -1.5625 -4.09375 0 -5.65625 l 33.941406 -33.941406 c 1.5625 -1.5625 4.09375 -1.5625 5.65625 0 z m 0 0" fill="url(#f)"/>
                <path d="m 116 8 c -2.214844 0 -4 1.785156 -4 4 v 54.34375 l 8 1.65625 v -56 c 0 -2.214844 -1.785156 -4 -4 -4 z m 0 0" fill="url(#g)"/>
                <path d="m 112 20 h 8 c 1.105469 0 2 0.894531 2 2 v 8 c 0 1.105469 -0.894531 2 -2 2 h -8 c -1.105469 0 -2 -0.894531 -2 -2 v -8 c 0 -1.105469 0.894531 -2 2 -2 z m 0 0" fill="#c0bfbc"/>
                <path d="m 128 12 c 0 6.628906 -5.371094 12 -12 12 s -12 -5.371094 -12 -12 s 5.371094 -12 12 -12 s 12 5.371094 12 12 z m 0 0" fill="url(#h)"/>
                <path d="m 127.941406 10.824219 c -0.433594 6.28125 -5.644531 11.160156 -11.941406 11.175781 c -6.226562 -0.015625 -11.410156 -4.792969 -11.925781 -11 c -0.039063 0.332031 -0.0625 0.664062 -0.074219 1 c 0 6.628906 5.371094 12 12 12 s 12 -5.371094 12 -12 c 0 -0.394531 -0.019531 -0.785156 -0.058594 -1.175781 z m 0 0" fill="#ffffff" fill-opacity="0.2"/>
                <path d="m 110 28 v 2 c 0 1.109375 0.890625 2 2 2 h 8 c 1.109375 0 2 -0.890625 2 -2 v -2 c 0 1.109375 -0.890625 2 -2 2 h -8 c -1.109375 0 -2 -0.890625 -2 -2 z m 0 0" fill="#9a9996"/>
                <path d="m 83.472656 100.527344 c 0.78125 0.78125 0.78125 2.046875 0 2.828125 l -5.65625 5.65625 c -0.78125 0.78125 -2.046875 0.78125 -2.828125 0 s -0.78125 -2.046875 0 -2.828125 l 5.65625 -5.65625 c 0.78125 -0.78125 2.046875 -0.78125 2.828125 0 z m 0 0" fill="url(#i)"/>
                <path d="m 89.714844 97.113281 c 0.390625 -0.390625 1.023437 -0.390625 1.414062 0 l 4.242188 4.242188 c 0.390625 0.390625 0.390625 1.023437 0 1.414062 s -1.023438 0.390625 -1.414063 0 l -4.242187 -4.242187 c -0.390625 -0.390625 -0.390625 -1.023438 0 -1.414063 z m 0 0" fill="url(#j)"/>
                <path d="m 90.542969 87.800781 l 5.65625 5.65625 c 0.78125 0.78125 0.78125 2.046875 0 2.828125 l -11.3125 11.3125 c -0.78125 0.78125 -2.046875 0.78125 -2.828125 0 l -5.65625 -5.65625 c -0.78125 -0.78125 -0.78125 -2.046875 0 -2.828125 l 11.3125 -11.3125 c 0.78125 -0.78125 2.046875 -0.78125 2.828125 0 z m 0 0" fill="url(#k)"/>
            </g>
        </g>
    </mask>
    <mask id="p">
        <g filter="url(#n)">
            <rect fill-opacity="0.8" height="128" width="128"/>
        </g>
    </mask>
    <linearGradient id="q" gradientTransform="matrix(0 0.37 -0.98462 0 295.38501 -30.360001)" gradientUnits="userSpaceOnUse" x1="300" x2="428" y1="235" y2="235">
        <stop offset="0" stop-color="#f9f06b"/>
        <stop offset="1" stop-color="#f5c211"/>
    </linearGradient>
    <clipPath id="r">
        <rect height="128" width="128"/>
    </clipPath>
    <clipPath id="s">
        <rect height="128" width="128"/>
    </clipPath>
    <path d="m 124 65 c 0 33.136719 -26.863281 60 -60 60 s -60 -26.863281 -60 -60 s 26.863281 -60 60 -60 s 60 26.863281 60 60 z m 0 0" fill="url(#b)"/>
    <path d="m 124 63 c 0 33.136719 -26.863281 60 -60 60 s -60 -26.863281 -60 -60 s 26.863281 -60 60 -60 s 60 26.863281 60 60 z m 0 0" fill="url(#c)"/>
    <path d="m 123.960938 63.511719 c -0.277344 32.921875 -27.035157 59.46875 -59.960938 59.488281 c -32.722656 -0.035156 -59.382812 -26.28125 -59.929688 -59 c -0.023437 0.332031 -0.050781 0.667969 -0.070312 1 c 0 33.136719 26.863281 60 60 60 s 60 -26.863281 60 -60 c -0.007812 -0.496094 -0.019531 -0.992188 -0.035156 -1.488281 z m 0 0" fill-opacity="0.2"/>
    <path d="m 64 47 c -8.835938 0 -16 7.164062 -16 16 s 7.164062 16 16 16 s 16 -7.164062 16 -16 s -7.164062 -16 -16 -16 z m 0 2 c 7.730469 0 14 6.269531 14 14 s -6.269531 14 -14 14 s -14 -6.269531 -14 -14 s 6.269531 -14 14 -14 z m 0 0" fill="#ffffff" fill-opacity="0.4"/>
    <path d="m 78 63 c 0 7.730469 -6.269531 14 -14 14 s -14 -6.269531 -14 -14 s 6.269531 -14 14 -14 s 14 6.269531 14 14 z m 0 0" fill="#ffffff" fill-opacity="0.2"/>
    <path d="m 67 63 c 0 1.65625 -1.34375 3 -3 3 s -3 -1.34375 -3 -3 s 1.34375 -3 3 -3 s 3 1.34375 3 3 z m 0 0" fill="#241f31"/>
    <g fill="url(#d)">
        <path d="m 64 14 c -27.050781 0 -49 21.949219 -49 49 s 21.949219 49 49 49 s 49 -21.949219 49 -49 s -21.949219 -49 -49 -49 z m 0 2 c 25.96875 0 47 21.03125 47 47 s -21.03125 47 -47 47 s -47 -21.03125 -47 -47 s 21.03125 -47 47 -47 z m 0 0"/>
        <path d="m 64 20 c -23.738281 0 -43 19.261719 -43 43 s 19.261719 43 43 43 s 43 -19.261719 43 -43 s -19.261719 -43 -43 -43 z m 0 2 c 22.65625 0 41 18.34375 41 41 s -18.34375 41 -41 41 s -41 -18.34375 -41 -41 s 18.34375 -41 41 -41 z m 0 0"/>
        <path d="m 64 26 c -20.421875 0 -37 16.578125 -37 37 s 16.578125 37 37 37 s 37 -16.578125 37 -37 s -16.578125 -37 -37 -37 z m 0 2 c 19.339844 0 35 15.660156 35 35 s -15.660156 35 -35 35 s -35 -15.660156 -35 -35 s 15.660156 -35 35 -35 z m 0 0"/>
        <path d="m 64 32 c -17.109375 0 -31 13.890625 -31 31 s 13.890625 31 31 31 s 31 -13.890625 31 -31 s -13.890625 -31 -31 -31 z m 0 2 c 16.027344 0 29 12.972656 29 29 s -12.972656 29 -29 29 s -29 -12.972656 -29 -29 s 12.972656 -29 29 -29 z m 0 0"/>
        <path d="m 64 38 c -13.796875 0 -25 11.203125 -25 25 s 11.203125 25 25 25 s 25 -11.203125 25 -25 s -11.203125 -25 -25 -25 z m 0 2 c 12.714844 0 23 10.285156 23 23 s -10.285156 23 -23 23 s -23 -10.285156 -23 -23 s 10.285156 -23 23 -23 z m 0 0"/>
    </g>
    <path d="m 64 3 c -33.136719 0 -60 26.863281 -60 60 s 26.863281 60 60 60 s 60 -26.863281 60 -60 s -26.863281 -60 -60 -60 z m 0 4 c 30.929688 0 56 25.070312 56 56 s -25.070312 56 -56 56 s -56 -25.070312 -56 -56 s 25.070312 -56 56 -56 z m 0 0" fill="#ffffff" fill-opacity="0.4"/>
    <path d="m 116 10 c -2.214844 0 -4 1.785156 -4 4 v 54.34375 l -21.453125 21.453125 c -0.785156 -0.78125 -2.046875 -0.78125 -2.832031 0 l -11.3125 11.316406 c -0.785156 0.785157 -0.785156 2.042969 0 2.828125 l 1.414062 1.414063 l -2.828125 2.828125 c -0.785156 0.785156 -0.785156 2.042968 0 2.828125 c 0.785157 0.785156 2.042969 0.785156 2.828125 0 l 2.828125 -2.828125 l 1.414063 1.414062 c 0.785156 0.785156 2.042968 0.785156 2.828125 0 l 6.949219 -6.949218 l 2.121093 2.121093 c 0.394531 0.390625 1.023438 0.390625 1.417969 0 c 0.390625 -0.390625 0.390625 -1.023437 -0.003906 -1.414062 l -2.121094 -2.121094 l 2.949219 -2.949219 c 0.785156 -0.785156 0.785156 -2.046875 0.003906 -2.828125 l 22.625 -22.628906 c 0.804687 -0.804687 1.191406 -1.855469 1.171875 -2.902344 v -55.925781 c 0 -2.214844 -1.785156 -4 -4 -4 z m 0 0" fill-opacity="0.2"/>
    <path d="m 128 14 c 0 6.628906 -5.371094 12 -12 12 s -12 -5.371094 -12 -12 s 5.371094 -12 12 -12 s 12 5.371094 12 12 z m 0 0" fill="#c0bfbc"/>
    <path d="m 118.828125 65.171875 c 1.5625 1.5625 1.5625 4.09375 0 5.65625 l -33.941406 33.941406 c -1.5625 1.5625 -4.09375 1.5625 -5.65625 0 s -1.5625 -4.09375 0 -5.65625 l 33.941406 -33.941406 c 1.5625 -1.5625 4.09375 -1.5625 5.65625 0 z m 0 0" fill="url(#f)"/>
    <path d="m 116 8 c -2.214844 0 -4 1.785156 -4 4 v 54.34375 l 8 1.65625 v -56 c 0 -2.214844 -1.785156 -4 -4 -4 z m 0 0" fill="url(#g)"/>
    <path d="m 112 20 h 8 c 1.105469 0 2 0.894531 2 2 v 8 c 0 1.105469 -0.894531 2 -2 2 h -8 c -1.105469 0 -2 -0.894531 -2 -2 v -8 c 0 -1.105469 0.894531 -2 2 -2 z m 0 0" fill="#c0bfbc"/>
    <path d="m 128 12 c 0 6.628906 -5.371094 12 -12 12 s -12 -5.371094 -12 -12 s 5.371094 -12 12 -12 s 12 5.371094 12 12 z m 0 0" fill="url(#h)"/>
    <path d="m 127.941406 10.824219 c -0.433594 6.28125 -5.644531 11.160156 -11.941406 11.175781 c -6.226562 -0.015625 -11.410156 -4.792969 -11.925781 -11 c -0.039063 0.332031 -0.0625 0.664062 -0.074219 1 c 0 6.628906 5.371094 12 12 12 s 12 -5.371094 12 -12 c 0 -0.394531 -0.019531 -0.785156 -0.058594 -1.175781 z m 0 0" fill="#ffffff" fill-opacity="0.2"/>
    <path d="m 110 28 v 2 c 0 1.109375 0.890625 2 2 2 h 8 c 1.109375 0 2 -0.890625 2 -2 v -2 c 0 1.109375 -0.890625 2 -2 2 h -8 c -1.109375 0 -2 -0.890625 -2 -2 z m 0 0" fill="#9a9996"/>
    <path d="m 83.472656 100.527344 c 0.78125 0.78125 0.78125 2.046875 0 2.828125 l -5.65625 5.65625 c -0.78125 0.78125 -2.046875 0.78125 -2.828125 0 s -0.78125 -2.046875 0 -2.828125 l 5.65625 -5.65625 c 0.78125 -0.78125 2.046875 -0.78125 2.828125 0 z m 0 0" fill="url(#i)"/>
    <path d="m 89.714844 97.113281 c 0.390625 -0.390625 1.023437 -0.390625 1.414062 0 l 4.242188 4.242188 c 0.390625 0.390625 0.390625 1.023437 0 1.414062 s -1.023438 0.390625 -1.414063 0 l -4.242187 -4.242187 c -0.390625 -0.390625 -0.390625 -1.023438 0 -1.414063 z m 0 0" fill="url(#j)"/>
    <path d="m 90.542969 87.800781 l 5.65625 5.65625 c 0.78125 0.78125 0.78125 2.046875 0 2.828125 l -11.3125 11.3125 c -0.78125 0.78125 -2.046875 0.78125 -2.828125 0 l -5.65625 -5.65625 c -0.78125 -0.78125 -0.78125 -2.046875 0 -2.828125 l 11.3125 -11.3125 c 0.78125 -0.78125 2.046875 -0.78125 2.828125 0 z m 0 0" fill="url(#k)"/>
    <g clip-path="url(#s)" mask="url(#o)">
        <g clip-path="url(#r)" mask="url(#p)">
            <path d="m 128 80.640625 v 47.359375 h -128 v -47.359375 z m 0 0" fill="url(#q)"/>
            <path d="m 13.308594 80.640625 l 47.355468 47.359375 h 21.214844 l -47.359375 -47.359375 z m 42.421875 0 l 47.363281 47.359375 h 21.214844 l -47.363282 -47.359375 z m 42.429687 0 l 29.839844 29.839844 v -21.210938 l -8.628906 -8.628906 z m -98.160156 7.90625 v 21.214844 l 18.238281 18.238281 h 21.214844 z m 0 0"/>
        </g>
    </g>
</svg>
