<?xml version="1.0" encoding="UTF-8"?>
<svg width="128px" height="128px" viewBox="0 0 128 128" xmlns="http://www.w3.org/2000/svg">
    <path d="m 64 4 c -30.929688 0 -56 25.070312 -56 56 v 8 c 0 30.929688 25.070312 56 56 56 s 56 -25.070312 56 -56 v -8 c 0 -30.929688 -25.070312 -56 -56 -56 z m 0 42.5 c 7.457031 0 13.5 6.042969 13.5 13.5 s -6.042969 13.5 -13.5 13.5 s -13.5 -6.042969 -13.5 -13.5 s 6.042969 -13.5 13.5 -13.5 z m 0 0" fill="#2ec27e"/>
    <path d="m 64 4 c -14.332031 0 -28.664062 5.46875 -39.597656 16.402344 c -21.871094 21.871094 -21.871094 57.324218 0 79.191406 c 21.871094 21.875 57.324218 21.875 79.191406 0 c 21.875 -21.867188 21.875 -57.320312 0 -79.191406 c -10.933594 -10.933594 -25.261719 -16.402344 -39.59375 -16.402344 z m 0 42.5 c 7.457031 0 13.5 6.042969 13.5 13.5 s -6.042969 13.5 -13.5 13.5 s -13.5 -6.042969 -13.5 -13.5 s 6.042969 -13.5 13.5 -13.5 z m 0 0" fill="#57e389"/>
    <path d="m 64 46.5 c -7.457031 0 -13.5 6.042969 -13.5 13.5 c 0.003906 1.355469 0.214844 2.707031 0.621094 4 c 1.75 -5.644531 6.96875 -9.492188 12.878906 -9.5 c 5.90625 0 11.128906 3.84375 12.886719 9.484375 c 0.402343 -1.289063 0.609375 -2.632813 0.613281 -3.984375 c 0 -7.457031 -6.042969 -13.5 -13.5 -13.5 z m 0 0" fill="#26a269"/>
    <g fill="none" stroke="#8ff0a4" stroke-linecap="round" stroke-linejoin="round" stroke-width="3">
        <path d="m 64.53125 95.933594 c -9.671875 0 -18.945312 -3.839844 -25.785156 -10.679688 s -10.679688 -16.113281 -10.679688 -25.785156"/>
        <path d="m 63.46875 14.46875 c 25.4375 0 46.0625 20.625 46.0625 46.0625"/>
        <path d="m 64.53125 105.53125 c -12.21875 0 -23.933594 -4.855469 -32.570312 -13.492188 c -8.640626 -8.636718 -13.492188 -20.355468 -13.492188 -32.570312"/>
        <path d="m 63.46875 24.066406 c 20.140625 0 36.464844 16.324219 36.464844 36.464844"/>
    </g>
    <path d="m 64 37.5 c -12.425781 0 -22.5 10.074219 -22.5 22.5 s 10.074219 22.5 22.5 22.5 s 22.5 -10.074219 22.5 -22.5 s -10.074219 -22.5 -22.5 -22.5 z m 0 9.3125 c 7.285156 0 13.1875 5.902344 13.1875 13.1875 s -5.902344 13.1875 -13.1875 13.1875 s -13.1875 -5.902344 -13.1875 -13.1875 s 5.902344 -13.1875 13.1875 -13.1875 z m 0 0" fill="#2ec27e"/>
</svg>
