<svg height="128" width="128" xmlns="http://www.w3.org/2000/svg" xmlns:xlink="http://www.w3.org/1999/xlink">
	<linearGradient id="a" gradientUnits="userSpaceOnUse">
		<stop offset="0" stop-color="#f9f06b" />
		<stop offset="1" stop-color="#33d17a" />
	</linearGradient>
	<radialGradient id="f" cx="40" cy="34" r="120" xlink:href="#a" />
	<radialGradient id="g" cx="40" cy="32" r="120" xlink:href="#a" />
	<radialGradient id="h" cx="48" cy="40" gradientUnits="userSpaceOnUse" r="80">
		<stop offset="0" stop-color="#241f31" stop-opacity=".4" />
		<stop offset="1" stop-color="#241f31" stop-opacity="0" />
	</radialGradient>
	<linearGradient id="b" gradientUnits="userSpaceOnUse">
		<stop offset="0" stop-color="#9a9996" />
		<stop offset=".4" stop-color="#deddda" />
		<stop offset="1" stop-color="#77767b" />
	</linearGradient>
	<linearGradient id="i" gradientTransform="rotate(45 207.74 106) scale(1 .77778)" x1="112" x2="120" xlink:href="#b" y1="216" y2="216" />
	<linearGradient id="j" gradientTransform="matrix(1 0 0 .88889 0 -152)" gradientUnits="userSpaceOnUse" x1="112" x2="120" y1="216" y2="216">
		<stop offset="0" stop-color="#9a9996" />
		<stop offset=".5" stop-color="#deddda" />
		<stop offset="1" stop-color="#77767b" />
	</linearGradient>
	<linearGradient id="k" gradientUnits="userSpaceOnUse" x1="116" x2="116" y1="0" y2="24">
		<stop offset="0" stop-color="#c0bfbc" />
		<stop offset="1" stop-color="#deddda" />
	</linearGradient>
	<linearGradient id="l" gradientTransform="rotate(45 674.34 324.728) scale(1 2)" x1="96" x2="100" xlink:href="#b" y1="295" y2="295" />
	<linearGradient id="m" gradientTransform="rotate(-45 -1.087 156.34) scale(1 .66667)" gradientUnits="userSpaceOnUse" x1="104" x2="106" y1="274" y2="274">
		<stop offset="0" stop-color="#3d3846" stop-opacity=".98" />
		<stop offset=".6" stop-color="#9a9996" />
		<stop offset="1" stop-color="#5e5c64" />
	</linearGradient>
	<linearGradient id="n" gradientTransform="rotate(45 211.037 -84.586)" gradientUnits="userSpaceOnUse" x1="245.73" x2="257.73" y1="132.51" y2="132.51">
		<stop offset="0" stop-color="#5e5c64" />
		<stop offset=".4" stop-color="#9a9996" />
		<stop offset="1" stop-color="#3d3846" stop-opacity=".98" />
	</linearGradient>
	<clipPath id="e">
		<path d="M0 0h128v128H0z" />
	</clipPath>
	<clipPath id="c">
		<path d="M0 0h128v128H0z" />
	</clipPath>
	<filter id="d" height="100%" width="100%" x="0%" y="0%">
		<feColorMatrix in="SourceGraphic" values="0 0 0 0 1 0 0 0 0 1 0 0 0 0 1 0 0 0 1 0" />
	</filter>
	<mask id="p">
		<g clip-path="url(#c)" filter="url(#d)">
			<g clip-path="url(#e)">
				<path d="M124 65c0 33.137-26.863 60-60 60S4 98.137 4 65 30.863 5 64 5s60 26.863 60 60zm0 0" fill="url(#f)" />
				<path d="M124 63c0 33.137-26.863 60-60 60S4 96.137 4 63 30.863 3 64 3s60 26.863 60 60zm0 0" fill="url(#g)" />
				<path d="M123.96 63.512C123.685 96.434 96.927 122.98 64 123c-32.723-.035-59.383-26.281-59.93-59-.023.332-.05.668-.07 1 0 33.137 26.863 60 60 60s60-26.863 60-60a94.58 94.58 0 0 0-.035-1.488zm0 0" fill-opacity=".2" />
				<path d="M64 47c-8.836 0-16 7.164-16 16s7.164 16 16 16 16-7.164 16-16-7.164-16-16-16zm0 2c7.73 0 14 6.27 14 14s-6.27 14-14 14-14-6.27-14-14 6.27-14 14-14zm0 0" fill="#fff" fill-opacity=".4" />
				<path d="M78 63c0 7.73-6.27 14-14 14s-14-6.27-14-14 6.27-14 14-14 14 6.27 14 14zm0 0" fill="#fff" fill-opacity=".2" />
				<path d="M67 63a3 3 0 1 1-6.002-.002A3 3 0 0 1 67 63zm0 0" fill="#241f31" />
				<path d="M64 14c-27.05 0-49 21.95-49 49s21.95 49 49 49 49-21.95 49-49-21.95-49-49-49zm0 2c25.969 0 47 21.031 47 47s-21.031 47-47 47-47-21.031-47-47 21.031-47 47-47zm0 0" fill="url(#h)" />
				<path d="M64 20c-23.738 0-43 19.262-43 43s19.262 43 43 43 43-19.262 43-43-19.262-43-43-43zm0 2c22.656 0 41 18.344 41 41s-18.344 41-41 41-41-18.344-41-41 18.344-41 41-41zm0 0" fill="url(#h)" />
				<path d="M64 26c-20.422 0-37 16.578-37 37s16.578 37 37 37 37-16.578 37-37-16.578-37-37-37zm0 2c19.34 0 35 15.66 35 35S83.34 98 64 98 29 82.34 29 63s15.66-35 35-35zm0 0" fill="url(#h)" />
				<path d="M64 32c-17.11 0-31 13.89-31 31s13.89 31 31 31 31-13.89 31-31-13.89-31-31-31zm0 2c16.027 0 29 12.973 29 29S80.027 92 64 92 35 79.027 35 63s12.973-29 29-29zm0 0" fill="url(#h)" />
				<path d="M64 38c-13.797 0-25 11.203-25 25s11.203 25 25 25 25-11.203 25-25-11.203-25-25-25zm0 2c12.715 0 23 10.285 23 23S76.715 86 64 86 41 75.715 41 63s10.285-23 23-23zm0 0" fill="url(#h)" />
				<path d="M64 3C30.863 3 4 29.863 4 63s26.863 60 60 60 60-26.863 60-60S97.137 3 64 3zm0 4c30.93 0 56 25.07 56 56s-25.07 56-56 56S8 93.93 8 63 33.07 7 64 7zm0 0" fill="#fff" fill-opacity=".4" />
				<path d="M116 10c-2.215 0-4 1.785-4 4v54.344L90.547 89.797a2.004 2.004 0 0 0-2.832 0l-11.313 11.316a1.992 1.992 0 0 0 0 2.828l1.414 1.414-2.828 2.829a1.992 1.992 0 0 0 0 2.828 1.992 1.992 0 0 0 2.828 0l2.829-2.828 1.414 1.414a1.992 1.992 0 0 0 2.828 0l6.949-6.95 2.121 2.122c.395.39 1.023.39 1.418 0a.996.996 0 0 0-.004-1.415l-2.121-2.12 2.95-2.95a1.996 1.996 0 0 0 .003-2.828l22.625-22.629A3.979 3.979 0 0 0 120 69.926V14c0-2.215-1.785-4-4-4zm0 0" fill-opacity=".2" />
				<path d="M128 14c0 6.629-5.371 12-12 12s-12-5.371-12-12 5.371-12 12-12 12 5.371 12 12zm0 0" fill="#c0bfbc" />
				<path d="M118.828 65.172a3.999 3.999 0 0 1 0 5.656L84.887 104.77c-1.563 1.562-4.094 1.562-5.657 0s-1.562-4.094 0-5.657l33.942-33.941a3.999 3.999 0 0 1 5.656 0zm0 0" fill="url(#i)" />
				<path d="M116 8c-2.215 0-4 1.785-4 4v54.344L120 68V12c0-2.215-1.785-4-4-4zm0 0" fill="url(#j)" />
				<path d="M112 20h8c1.105 0 2 .895 2 2v8c0 1.105-.895 2-2 2h-8c-1.105 0-2-.895-2-2v-8c0-1.105.895-2 2-2zm0 0" fill="#c0bfbc" />
				<path d="M128 12c0 6.629-5.371 12-12 12s-12-5.371-12-12 5.371-12 12-12 12 5.371 12 12zm0 0" fill="url(#k)" />
				<path d="M127.941 10.824C127.508 17.105 122.297 21.984 116 22c-6.227-.016-11.41-4.793-11.926-11-.039.332-.062.664-.074 1 0 6.629 5.371 12 12 12s12-5.371 12-12c0-.395-.02-.785-.059-1.176zm0 0" fill="#fff" fill-opacity=".2" />
				<path d="M110 28v2c0 1.11.89 2 2 2h8c1.11 0 2-.89 2-2v-2c0 1.11-.89 2-2 2h-8c-1.11 0-2-.89-2-2zm0 0" fill="#9a9996" />
				<path d="M83.473 100.527a2 2 0 0 1 0 2.828l-5.657 5.657a2 2 0 1 1-2.828-2.828l5.657-5.657a2 2 0 0 1 2.828 0zm0 0" fill="url(#l)" />
				<path d="M89.715 97.113a1 1 0 0 1 1.414 0l4.242 4.242a1 1 0 1 1-1.414 1.415l-4.242-4.243a1 1 0 0 1 0-1.414zm0 0" fill="url(#m)" />
				<path d="m90.543 87.8 5.656 5.657a2 2 0 0 1 0 2.828l-11.312 11.313a2 2 0 0 1-2.828 0l-5.657-5.657a2 2 0 0 1 0-2.828l11.313-11.312a2 2 0 0 1 2.828 0zm0 0" fill="url(#n)" />
			</g>
		</g>
	</mask>
	<mask id="r">
		<g filter="url(#d)">
			<path fill-opacity=".8" d="M0 0h128v128H0z" />
		</g>
	</mask>
	<linearGradient id="s" gradientTransform="matrix(0 .37 -.98462 0 295.385 -30.36)" gradientUnits="userSpaceOnUse" x1="300" x2="428" y1="235" y2="235">
		<stop offset="0" stop-color="#f9f06b" />
		<stop offset="1" stop-color="#f5c211" />
	</linearGradient>
	<clipPath id="q">
		<path d="M0 0h128v128H0z" />
	</clipPath>
	<clipPath id="o">
		<path d="M0 0h128v128H0z" />
	</clipPath>
	<path d="M124 65c0 33.137-26.863 60-60 60S4 98.137 4 65 30.863 5 64 5s60 26.863 60 60zm0 0" fill="url(#f)" />
	<path d="M124 63c0 33.137-26.863 60-60 60S4 96.137 4 63 30.863 3 64 3s60 26.863 60 60zm0 0" fill="url(#g)" />
	<path d="M123.96 63.512C123.685 96.434 96.927 122.98 64 123c-32.723-.035-59.383-26.281-59.93-59-.023.332-.05.668-.07 1 0 33.137 26.863 60 60 60s60-26.863 60-60a94.58 94.58 0 0 0-.035-1.488zm0 0" fill-opacity=".2" />
	<path d="M64 47c-8.836 0-16 7.164-16 16s7.164 16 16 16 16-7.164 16-16-7.164-16-16-16zm0 2c7.73 0 14 6.27 14 14s-6.27 14-14 14-14-6.27-14-14 6.27-14 14-14zm0 0" fill="#fff" fill-opacity=".4" />
	<path d="M78 63c0 7.73-6.27 14-14 14s-14-6.27-14-14 6.27-14 14-14 14 6.27 14 14zm0 0" fill="#fff" fill-opacity=".2" />
	<path d="M67 63a3 3 0 1 1-6.002-.002A3 3 0 0 1 67 63zm0 0" fill="#241f31" />
	<g fill="url(#h)">
		<path d="M64 14c-27.05 0-49 21.95-49 49s21.95 49 49 49 49-21.95 49-49-21.95-49-49-49zm0 2c25.969 0 47 21.031 47 47s-21.031 47-47 47-47-21.031-47-47 21.031-47 47-47zm0 0" />
		<path d="M64 20c-23.738 0-43 19.262-43 43s19.262 43 43 43 43-19.262 43-43-19.262-43-43-43zm0 2c22.656 0 41 18.344 41 41s-18.344 41-41 41-41-18.344-41-41 18.344-41 41-41zm0 0" />
		<path d="M64 26c-20.422 0-37 16.578-37 37s16.578 37 37 37 37-16.578 37-37-16.578-37-37-37zm0 2c19.34 0 35 15.66 35 35S83.34 98 64 98 29 82.34 29 63s15.66-35 35-35zm0 0" />
		<path d="M64 32c-17.11 0-31 13.89-31 31s13.89 31 31 31 31-13.89 31-31-13.89-31-31-31zm0 2c16.027 0 29 12.973 29 29S80.027 92 64 92 35 79.027 35 63s12.973-29 29-29zm0 0" />
		<path d="M64 38c-13.797 0-25 11.203-25 25s11.203 25 25 25 25-11.203 25-25-11.203-25-25-25zm0 2c12.715 0 23 10.285 23 23S76.715 86 64 86 41 75.715 41 63s10.285-23 23-23zm0 0" />
	</g>
	<path d="M64 3C30.863 3 4 29.863 4 63s26.863 60 60 60 60-26.863 60-60S97.137 3 64 3zm0 4c30.93 0 56 25.07 56 56s-25.07 56-56 56S8 93.93 8 63 33.07 7 64 7zm0 0" fill="#fff" fill-opacity=".4" />
	<path d="M116 10c-2.215 0-4 1.785-4 4v54.344L90.547 89.797a2.004 2.004 0 0 0-2.832 0l-11.313 11.316a1.992 1.992 0 0 0 0 2.828l1.414 1.414-2.828 2.829a1.992 1.992 0 0 0 0 2.828 1.992 1.992 0 0 0 2.828 0l2.829-2.828 1.414 1.414a1.992 1.992 0 0 0 2.828 0l6.949-6.95 2.121 2.122c.395.39 1.023.39 1.418 0a.996.996 0 0 0-.004-1.415l-2.121-2.12 2.95-2.95a1.996 1.996 0 0 0 .003-2.828l22.625-22.629A3.979 3.979 0 0 0 120 69.926V14c0-2.215-1.785-4-4-4zm0 0" fill-opacity=".2" />
	<path d="M128 14c0 6.629-5.371 12-12 12s-12-5.371-12-12 5.371-12 12-12 12 5.371 12 12zm0 0" fill="#c0bfbc" />
	<path d="M118.828 65.172a3.999 3.999 0 0 1 0 5.656L84.887 104.77c-1.563 1.562-4.094 1.562-5.657 0s-1.562-4.094 0-5.657l33.942-33.941a3.999 3.999 0 0 1 5.656 0zm0 0" fill="url(#i)" />
	<path d="M116 8c-2.215 0-4 1.785-4 4v54.344L120 68V12c0-2.215-1.785-4-4-4zm0 0" fill="url(#j)" />
	<path d="M112 20h8c1.105 0 2 .895 2 2v8c0 1.105-.895 2-2 2h-8c-1.105 0-2-.895-2-2v-8c0-1.105.895-2 2-2zm0 0" fill="#c0bfbc" />
	<path d="M128 12c0 6.629-5.371 12-12 12s-12-5.371-12-12 5.371-12 12-12 12 5.371 12 12zm0 0" fill="url(#k)" />
	<path d="M127.941 10.824C127.508 17.105 122.297 21.984 116 22c-6.227-.016-11.41-4.793-11.926-11-.039.332-.062.664-.074 1 0 6.629 5.371 12 12 12s12-5.371 12-12c0-.395-.02-.785-.059-1.176zm0 0" fill="#fff" fill-opacity=".2" />
	<path d="M110 28v2c0 1.11.89 2 2 2h8c1.11 0 2-.89 2-2v-2c0 1.11-.89 2-2 2h-8c-1.11 0-2-.89-2-2zm0 0" fill="#9a9996" />
	<path d="M83.473 100.527a2 2 0 0 1 0 2.828l-5.657 5.657a2 2 0 1 1-2.828-2.828l5.657-5.657a2 2 0 0 1 2.828 0zm0 0" fill="url(#l)" />
	<path d="M89.715 97.113a1 1 0 0 1 1.414 0l4.242 4.242a1 1 0 1 1-1.414 1.415l-4.242-4.243a1 1 0 0 1 0-1.414zm0 0" fill="url(#m)" />
	<path d="m90.543 87.8 5.656 5.657a2 2 0 0 1 0 2.828l-11.312 11.313a2 2 0 0 1-2.828 0l-5.657-5.657a2 2 0 0 1 0-2.828l11.313-11.312a2 2 0 0 1 2.828 0zm0 0" fill="url(#n)" />
	<g clip-path="url(#o)" mask="url(#p)">
		<g clip-path="url(#q)" mask="url(#r)">
			<path d="M128 80.64V128H0V80.64zm0 0" fill="url(#s)" />
			<path d="M13.309 80.64 60.664 128H81.88l-47.36-47.36zm42.421 0L103.094 128h21.215L76.945 80.64zm42.43 0L128 110.48V89.27l-8.629-8.63zM0 88.548v21.215L18.238 128h21.215zm0 0" />
		</g>
	</g>
</svg>
