<?xml version="1.0" encoding="UTF-8" standalone="no"?>
<!-- Created with Inkscape (http://www.inkscape.org/) -->

<svg
   inkscape:export-ydpi="96"
   inkscape:export-xdpi="96"
   inkscape:export-filename="Template.png"
   width="192"
   height="152"
   id="svg11300"
   sodipodi:version="0.32"
   inkscape:version="1.2.2 (b0a8486541, 2022-12-01)"
   sodipodi:docname="com.github.neithern.g4music.Source.svg"
   inkscape:output_extension="org.inkscape.output.svg.inkscape"
   version="1.0"
   style="display:inline;enable-background:new"
   viewBox="0 0 192 152"
   xmlns:inkscape="http://www.inkscape.org/namespaces/inkscape"
   xmlns:sodipodi="http://sodipodi.sourceforge.net/DTD/sodipodi-0.dtd"
   xmlns:xlink="http://www.w3.org/1999/xlink"
   xmlns="http://www.w3.org/2000/svg"
   xmlns:svg="http://www.w3.org/2000/svg"
   xmlns:rdf="http://www.w3.org/1999/02/22-rdf-syntax-ns#"
   xmlns:cc="http://creativecommons.org/ns#"
   xmlns:dc="http://purl.org/dc/elements/1.1/">
  <title
     id="title4162">Adwaita Icon Template</title>
  <defs
     id="defs3">
    <linearGradient
       inkscape:collect="always"
       id="linearGradient11527">
      <stop
         style="stop-color:#3d3846;stop-opacity:0.98039216;"
         offset="0"
         id="stop11525" />
      <stop
         style="stop-color:#9a9996;stop-opacity:1;"
         offset="0.59999999"
         id="stop11523" />
      <stop
         style="stop-color:#5e5c64;stop-opacity:1;"
         offset="1"
         id="stop11521" />
    </linearGradient>
    <linearGradient
       inkscape:collect="always"
       id="linearGradient9609">
      <stop
         style="stop-color:#f9f06b;stop-opacity:1;"
         offset="0"
         id="stop9605" />
      <stop
         style="stop-color:#33d17a;stop-opacity:1;"
         offset="1"
         id="stop9607" />
    </linearGradient>
    <linearGradient
       inkscape:collect="always"
       id="linearGradient7053">
      <stop
         style="stop-color:#5e5c64;stop-opacity:1;"
         offset="0"
         id="stop7049" />
      <stop
         style="stop-color:#9a9996;stop-opacity:1;"
         offset="0.40000001"
         id="stop7057" />
      <stop
         style="stop-color:#3d3846;stop-opacity:0.98039216;"
         offset="1"
         id="stop7051" />
    </linearGradient>
    <linearGradient
       inkscape:collect="always"
       id="linearGradient6623">
      <stop
         style="stop-color:#9a9996;stop-opacity:1;"
         offset="0"
         id="stop6617" />
      <stop
         style="stop-color:#deddda;stop-opacity:1;"
         offset="0.40000001"
         id="stop6619" />
      <stop
         style="stop-color:#77767b;stop-opacity:1;"
         offset="1"
         id="stop6621" />
    </linearGradient>
    <linearGradient
       inkscape:collect="always"
       id="linearGradient4000">
      <stop
         style="stop-color:#c0bfbc;stop-opacity:1;"
         offset="0"
         id="stop3996" />
      <stop
         style="stop-color:#deddda;stop-opacity:1;"
         offset="1"
         id="stop3998" />
    </linearGradient>
    <linearGradient
       inkscape:collect="always"
       id="linearGradient3188">
      <stop
         style="stop-color:#9a9996;stop-opacity:1;"
         offset="0"
         id="stop3186" />
      <stop
         style="stop-color:#deddda;stop-opacity:1;"
         offset="0.5"
         id="stop3192" />
      <stop
         style="stop-color:#77767b;stop-opacity:1;"
         offset="1"
         id="stop3184" />
    </linearGradient>
    <linearGradient
       inkscape:collect="always"
       id="linearGradient985">
      <stop
         style="stop-color:#f9f06b;stop-opacity:1;"
         offset="0"
         id="stop981" />
      <stop
         style="stop-color:#33d17a;stop-opacity:1;"
         offset="1"
         id="stop983" />
    </linearGradient>
    <linearGradient
       inkscape:collect="always"
       id="linearGradient11247">
      <stop
         style="stop-color:#241f31;stop-opacity:0.40000001;"
         offset="0"
         id="stop11243" />
      <stop
         style="stop-color:#241f31;stop-opacity:0;"
         offset="1"
         id="stop11245" />
    </linearGradient>
    <radialGradient
       inkscape:collect="always"
       xlink:href="#linearGradient11247"
       id="radialGradient11249"
       cx="51.750004"
       cy="221.0278"
       fx="51.750004"
       fy="221.0278"
       r="49"
       gradientUnits="userSpaceOnUse"
       gradientTransform="matrix(1.632653,0,0,1.632653,-36.489798,-148.86171)" />
    <radialGradient
       inkscape:collect="always"
       xlink:href="#linearGradient9609"
       id="radialGradient18017"
       cx="49"
       cy="215.625"
       fx="49"
       fy="215.625"
       r="60"
       gradientUnits="userSpaceOnUse"
       gradientTransform="matrix(2,0,0,1.9999999,-58,-227.24997)" />
    <radialGradient
       inkscape:collect="always"
       xlink:href="#linearGradient985"
       id="radialGradient1036"
       gradientUnits="userSpaceOnUse"
       gradientTransform="matrix(2,0,0,1.9999999,-58,-225.24997)"
       cx="49"
       cy="215.625"
       fx="49"
       fy="215.625"
       r="60" />
    <linearGradient
       inkscape:collect="always"
       xlink:href="#linearGradient4000"
       id="linearGradient4002"
       x1="116"
       y1="172"
       x2="116"
       y2="196"
       gradientUnits="userSpaceOnUse" />
    <linearGradient
       inkscape:collect="always"
       xlink:href="#linearGradient3188"
       id="linearGradient6148"
       x1="112"
       y1="216"
       x2="120"
       y2="216"
       gradientUnits="userSpaceOnUse"
       gradientTransform="matrix(1,0,0,0.88888889,0,20)" />
    <linearGradient
       inkscape:collect="always"
       xlink:href="#linearGradient6623"
       id="linearGradient6338"
       gradientUnits="userSpaceOnUse"
       x1="112"
       y1="216"
       x2="120"
       y2="216"
       gradientTransform="matrix(1,0,0,0.77777778,135.73003,-56.318764)" />
    <linearGradient
       inkscape:collect="always"
       xlink:href="#linearGradient7053"
       id="linearGradient7055"
       x1="245.73"
       y1="132.50966"
       x2="257.73"
       y2="132.50966"
       gradientUnits="userSpaceOnUse"
       gradientTransform="translate(1.3817649e-6,-2.8284289)" />
    <linearGradient
       inkscape:collect="always"
       xlink:href="#linearGradient6623"
       id="linearGradient10781"
       x1="96"
       y1="295"
       x2="100"
       y2="295"
       gradientUnits="userSpaceOnUse"
       gradientTransform="matrix(1,0,0,2,153.73,-450.31879)" />
    <linearGradient
       inkscape:collect="always"
       xlink:href="#linearGradient11527"
       id="linearGradient11156"
       x1="104"
       y1="274"
       x2="106"
       y2="274"
       gradientUnits="userSpaceOnUse"
       gradientTransform="matrix(1,0,0,0.66666667,-231.85284,75.063268)" />
  </defs>
  <sodipodi:namedview
     stroke="#ef2929"
     fill="#f57900"
     id="base"
     pagecolor="#ffffff"
     bordercolor="#666666"
     borderopacity="0.25490196"
     inkscape:pageopacity="0.0"
     inkscape:pageshadow="2"
     inkscape:zoom="3.1578947"
     inkscape:cx="95.95"
     inkscape:cy="76"
     inkscape:current-layer="layer9"
     showgrid="false"
     inkscape:grid-bbox="true"
     inkscape:document-units="px"
     inkscape:showpageshadow="false"
     inkscape:window-width="1280"
     inkscape:window-height="731"
     inkscape:window-x="0"
     inkscape:window-y="0"
     width="400px"
     height="300px"
     inkscape:snap-nodes="true"
     inkscape:snap-bbox="true"
     objecttolerance="7"
     gridtolerance="12"
     guidetolerance="13"
     inkscape:window-maximized="1"
     inkscape:pagecheckerboard="false"
     showguides="false"
     inkscape:guide-bbox="true"
     inkscape:locked="false"
     inkscape:measure-start="0,0"
     inkscape:measure-end="0,0"
     inkscape:object-nodes="true"
     inkscape:bbox-nodes="true"
     inkscape:snap-global="true"
     inkscape:object-paths="true"
     inkscape:snap-intersection-paths="true"
     inkscape:snap-bbox-edge-midpoints="true"
     inkscape:snap-bbox-midpoints="true"
     showborder="true"
     inkscape:snap-center="true"
     inkscape:snap-object-midpoints="true"
     inkscape:snap-midpoints="true"
     inkscape:snap-smooth-nodes="true"
     inkscape:snap-text-baseline="true"
     borderlayer="true"
     inkscape:deskcolor="#d1d1d1">
    <inkscape:grid
       type="xygrid"
       id="grid5883"
       spacingx="2"
       spacingy="2"
       enabled="true"
       visible="true"
       empspacing="4"
       originx="8"
       originy="8" />
    <sodipodi:guide
       position="72,16"
       orientation="0,1"
       id="guide1073"
       inkscape:locked="false"
       inkscape:label=""
       inkscape:color="rgb(0,0,255)" />
    <sodipodi:guide
       position="20,72"
       orientation="1,0"
       id="guide1075"
       inkscape:locked="false"
       inkscape:label=""
       inkscape:color="rgb(0,0,255)" />
    <sodipodi:guide
       position="72,112"
       orientation="0,1"
       id="guide1099"
       inkscape:locked="false"
       inkscape:label=""
       inkscape:color="rgb(0,0,255)" />
    <sodipodi:guide
       position="72,136"
       orientation="0,1"
       id="guide993"
       inkscape:locked="false"
       inkscape:label=""
       inkscape:color="rgb(0,0,255)" />
    <sodipodi:guide
       position="112,72"
       orientation="1,0"
       id="guide995"
       inkscape:locked="false"
       inkscape:label=""
       inkscape:color="rgb(0,0,255)" />
    <sodipodi:guide
       position="8.0000001,72"
       orientation="1,0"
       id="guide867"
       inkscape:locked="false"
       inkscape:label=""
       inkscape:color="rgb(0,0,255)" />
    <sodipodi:guide
       position="128,72"
       orientation="1,0"
       id="guide869"
       inkscape:locked="false"
       inkscape:label=""
       inkscape:color="rgb(0,0,255)" />
    <sodipodi:guide
       position="72,124"
       orientation="0,1"
       id="guide871"
       inkscape:locked="false"
       inkscape:label=""
       inkscape:color="rgb(0,0,255)" />
    <inkscape:grid
       type="xygrid"
       id="grid873"
       spacingx="1"
       spacingy="1"
       empspacing="8"
       color="#000000"
       opacity="0.49019608"
       empcolor="#000000"
       empopacity="0.08627451"
       dotted="true"
       originx="8"
       originy="8" />
    <sodipodi:guide
       position="32,72"
       orientation="1,0"
       id="guide877"
       inkscape:locked="false"
       inkscape:label=""
       inkscape:color="rgb(0,0,255)" />
    <sodipodi:guide
       position="124,72"
       orientation="1,0"
       id="guide879"
       inkscape:locked="false"
       inkscape:label=""
       inkscape:color="rgb(0,0,255)" />
    <sodipodi:guide
       position="72,128"
       orientation="0,1"
       id="guide881"
       inkscape:locked="false"
       inkscape:label=""
       inkscape:color="rgb(0,0,255)" />
    <sodipodi:guide
       position="72,20"
       orientation="0,1"
       id="guide883"
       inkscape:locked="false"
       inkscape:label=""
       inkscape:color="rgb(0,0,255)" />
    <sodipodi:guide
       position="16,72"
       orientation="1,0"
       id="guide885"
       inkscape:locked="false"
       inkscape:label=""
       inkscape:color="rgb(0,0,255)" />
    <sodipodi:guide
       position="136,72"
       orientation="1,0"
       id="guide887"
       inkscape:locked="false"
       inkscape:label=""
       inkscape:color="rgb(0,0,255)" />
    <sodipodi:guide
       position="72,8"
       orientation="0,1"
       id="guide897"
       inkscape:locked="false"
       inkscape:label=""
       inkscape:color="rgb(0,0,255)" />
    <sodipodi:guide
       position="72,32"
       orientation="0,1"
       id="guide899"
       inkscape:locked="false"
       inkscape:label=""
       inkscape:color="rgb(0,0,255)" />
    <sodipodi:guide
       position="264,264"
       orientation="-0.70710678,0.70710678"
       id="guide950"
       inkscape:locked="false"
       inkscape:label=""
       inkscape:color="rgb(0,0,255)" />
    <sodipodi:guide
       position="72,72"
       orientation="0.70710678,0.70710678"
       id="guide952"
       inkscape:locked="false"
       inkscape:label=""
       inkscape:color="rgb(0,0,255)" />
  </sodipodi:namedview>
  <metadata
     id="metadata4">
    <rdf:RDF>
      <cc:Work
         rdf:about="">
        <dc:format>image/svg+xml</dc:format>
        <dc:type
           rdf:resource="http://purl.org/dc/dcmitype/StillImage" />
        <dc:creator>
          <cc:Agent>
            <dc:title>GNOME Design Team</dc:title>
          </cc:Agent>
        </dc:creator>
        <dc:source />
        <cc:license
           rdf:resource="http://creativecommons.org/licenses/by-sa/4.0/" />
        <dc:title>Adwaita Icon Template</dc:title>
        <dc:subject>
          <rdf:Bag />
        </dc:subject>
        <dc:date />
        <dc:rights>
          <cc:Agent>
            <dc:title />
          </cc:Agent>
        </dc:rights>
        <dc:publisher>
          <cc:Agent>
            <dc:title />
          </cc:Agent>
        </dc:publisher>
        <dc:identifier />
        <dc:relation />
        <dc:language />
        <dc:coverage />
        <dc:description />
        <dc:contributor>
          <cc:Agent>
            <dc:title />
          </cc:Agent>
        </dc:contributor>
      </cc:Work>
      <cc:License
         rdf:about="http://creativecommons.org/licenses/by-sa/4.0/">
        <cc:permits
           rdf:resource="http://creativecommons.org/ns#Reproduction" />
        <cc:permits
           rdf:resource="http://creativecommons.org/ns#Distribution" />
        <cc:requires
           rdf:resource="http://creativecommons.org/ns#Notice" />
        <cc:requires
           rdf:resource="http://creativecommons.org/ns#Attribution" />
        <cc:permits
           rdf:resource="http://creativecommons.org/ns#DerivativeWorks" />
        <cc:requires
           rdf:resource="http://creativecommons.org/ns#ShareAlike" />
      </cc:License>
    </rdf:RDF>
  </metadata>
  <g
     id="layer1"
     inkscape:label="App Icon"
     inkscape:groupmode="layer"
     style="display:inline"
     transform="translate(8,-156)">
    <g
       inkscape:groupmode="layer"
       id="layer4"
       inkscape:label="template"
       style="display:inline"
       sodipodi:insensitive="true">
      <rect
         inkscape:label="0"
         y="172"
         x="9.2651362e-08"
         height="128"
         width="128"
         id="hicolor"
         style="display:inline;overflow:visible;visibility:visible;fill:#f0f0f0;fill-opacity:0;fill-rule:nonzero;stroke:none;stroke-width:0.5;marker:none;enable-background:accumulate" />
      <rect
         style="display:inline;overflow:visible;visibility:visible;fill:#f0f0f0;fill-opacity:0;fill-rule:nonzero;stroke:none;stroke-width:0.5;marker:none;enable-background:accumulate"
         id="symbolic"
         width="16"
         height="16"
         x="160"
         y="172"
         inkscape:label="0" />
    </g>
    <g
       inkscape:groupmode="layer"
       id="layer2"
       inkscape:label="baseplate"
       style="display:inline"
       sodipodi:insensitive="true">
      <g
         style="display:inline;fill:#000000;enable-background:new"
         transform="matrix(7.9911709,0,0,8.0036407,-167.7909,-4846.0776)"
         id="g12027"
         inkscape:export-xdpi="12"
         inkscape:export-ydpi="12" />
      <rect
         style="display:inline;overflow:visible;visibility:visible;fill:#f0f0f0;fill-opacity:1;fill-rule:nonzero;stroke:none;stroke-width:0.5;marker:none;enable-background:accumulate"
         id="128"
         width="128"
         height="128"
         x="9.2651362e-08"
         y="172"
         inkscape:label="0" />
      <g
         id="g883"
         style="fill:none;fill-opacity:0.25098;stroke:#a579b3;stroke-opacity:1"
         transform="translate(-24,24)" />
      <g
         id="g900"
         style="fill:none;fill-opacity:0.25098;stroke:#a579b3;stroke-opacity:1"
         transform="translate(-24,24)" />
      <rect
         inkscape:label=""
         y="172"
         x="160"
         height="16"
         width="16"
         id="16"
         style="display:inline;overflow:visible;visibility:visible;fill:#f0f0f0;fill-opacity:1;fill-rule:nonzero;stroke:none;stroke-width:0.5;marker:none;enable-background:accumulate" />
      <text
         xml:space="preserve"
         style="font-style:normal;font-variant:normal;font-weight:bold;font-stretch:normal;font-size:4px;line-height:125%;font-family:Cantarell;-inkscape-font-specification:'Cantarell, Bold';text-align:start;writing-mode:lr-tb;text-anchor:start;display:inline;fill:#000000;fill-opacity:1;stroke:none;stroke-width:0.332649;enable-background:new"
         x="0"
         y="167"
         id="text863"
         inkscape:label="icon-name"><tspan
           style="font-size:4px;stroke-width:0.332649"
           sodipodi:role="line"
           id="tspan861"
           x="0"
           y="167">Hicolor</tspan></text>
      <text
         inkscape:label="icon-name"
         id="text867"
         y="167"
         x="160"
         style="font-style:normal;font-variant:normal;font-weight:bold;font-stretch:normal;font-size:4px;line-height:125%;font-family:Cantarell;-inkscape-font-specification:'Cantarell, Bold';text-align:start;writing-mode:lr-tb;text-anchor:start;display:inline;fill:#000000;fill-opacity:1;stroke:none;stroke-width:0.332649;enable-background:new"
         xml:space="preserve"><tspan
           y="167"
           x="160"
           id="tspan865"
           sodipodi:role="line"
           style="font-size:4px;stroke-width:0.332649">Symbolic</tspan></text>
    </g>
    <g
       inkscape:groupmode="layer"
       id="layer9"
       inkscape:label="icons"
       style="display:inline">
      <circle
         style="fill:url(#radialGradient1036);fill-opacity:1;stroke-width:1.16494"
         id="circle1034"
         cx="64"
         cy="237"
         r="60" />
      <circle
         style="fill:url(#radialGradient18017);stroke-width:1.16494;fill-opacity:1"
         id="path1317"
         cx="64"
         cy="235"
         r="60" />
      <path
         id="circle5316"
         style="fill:#000000;fill-opacity:0.2;stroke-width:1.16494"
         d="M 123.96289,235.50977 A 60,60 0 0 1 64,295 60,60 0 0 1 4.0722656,236 60,60 0 0 0 4,237 a 60,60 0 0 0 60,60 60,60 0 0 0 60,-60 60,60 0 0 0 -0.0371,-1.49023 z" />
      <path
         id="path3873"
         style="fill:#ffffff;stroke-width:1.21356;fill-opacity:0.40000001"
         d="M 64 219 A 16 16 0 0 0 48 235 A 16 16 0 0 0 64 251 A 16 16 0 0 0 80 235 A 16 16 0 0 0 64 219 z M 64 221 A 14 14 0 0 1 78 235 A 14 14 0 0 1 64 249 A 14 14 0 0 1 50 235 A 14 14 0 0 1 64 221 z " />
      <circle
         style="fill:#ffffff;stroke-width:1.06186;fill-opacity:0.2"
         id="circle6730"
         cx="64"
         cy="235"
         r="14" />
      <circle
         style="fill:#241f31;stroke-width:0.227542"
         id="circle4341"
         cx="64"
         cy="235"
         r="3" />
      <g
         id="g11241"
         style="fill:url(#radialGradient11249);fill-opacity:1">
        <path
           style="color:#000000;fill:url(#radialGradient11249);-inkscape-stroke:none;fill-opacity:1"
           d="m 64,186 c -27.050081,0 -49,21.94992 -49,49 0,27.05008 21.949919,49 49,49 27.050081,0 49,-21.94992 49,-49 0,-27.05008 -21.949919,-49 -49,-49 z m 0,2 c 25.969202,0 47,21.0308 47,47 0,25.9692 -21.030798,47 -47,47 -25.969202,0 -47,-21.0308 -47,-47 0,-25.9692 21.030798,-47 47,-47 z"
           id="circle10252" />
        <path
           style="color:#000000;fill:url(#radialGradient11249);-inkscape-stroke:none;fill-opacity:1"
           d="m 64,192 c -23.736376,0 -43,19.26362 -43,43 0,23.73638 19.263624,43 43,43 23.736376,0 43,-19.26362 43,-43 0,-23.73638 -19.263624,-43 -43,-43 z m 0,2 c 22.655497,0 41,18.3445 41,41 0,22.6555 -18.344503,41 -41,41 -22.655497,0 -41,-18.3445 -41,-41 0,-22.6555 18.344503,-41 41,-41 z"
           id="circle10254" />
        <path
           style="color:#000000;fill:url(#radialGradient11249);-inkscape-stroke:none;fill-opacity:1"
           d="m 64,198 c -20.422671,0 -37,16.57733 -37,37 0,20.42267 16.577329,37 37,37 20.422671,0 37,-16.57733 37,-37 0,-20.42267 -16.577329,-37 -37,-37 z m 0,2 c 19.341792,0 35,15.65821 35,35 0,19.34179 -15.658208,35 -35,35 -19.341792,0 -35,-15.65821 -35,-35 0,-19.34179 15.658208,-35 35,-35 z"
           id="circle10256" />
        <path
           style="color:#000000;fill:url(#radialGradient11249);-inkscape-stroke:none;fill-opacity:1"
           d="m 64,204 c -17.108965,0 -31,13.89103 -31,31 0,17.10897 13.891035,31 31,31 17.108965,0 31,-13.89103 31,-31 0,-17.10897 -13.891035,-31 -31,-31 z m 0,2 c 16.028086,0 29,12.97191 29,29 0,16.02809 -12.971914,29 -29,29 -16.028086,0 -29,-12.97191 -29,-29 0,-16.02809 12.971914,-29 29,-29 z"
           id="circle10734" />
        <path
           style="color:#000000;fill:url(#radialGradient11249);-inkscape-stroke:none;fill-opacity:1"
           d="m 64,210 c -13.79526,0 -25,11.20474 -25,25 0,13.79526 11.20474,25 25,25 13.79526,0 25,-11.20474 25,-25 0,-13.79526 -11.20474,-25 -25,-25 z m 0,2 c 12.714381,0 23,10.28562 23,23 0,12.71438 -10.285619,23 -23,23 -12.714381,0 -23,-10.28562 -23,-23 0,-12.71438 10.285619,-23 23,-23 z"
           id="circle10736" />
      </g>
      <path
         id="circle30171"
         style="fill:#ffffff;fill-opacity:0.40000001;stroke-width:1.16494"
         d="m 64,175 a 60,60 0 0 0 -60,60 60,60 0 0 0 60,60 60,60 0 0 0 60,-60 60,60 0 0 0 -60,-60 z m 0,4 a 56,56 0 0 1 56,56 56,56 0 0 1 -56,56 56,56 0 0 1 -56,-56 56,56 0 0 1 56,-56 z" />
      <g
         id="g8730">
        <path
           id="rect11652"
           style="fill:#000000;fill-opacity:0.2;stroke:none;stroke-width:7.05534;stroke-linecap:round;stroke-linejoin:round;stroke-dasharray:none"
           inkscape:transform-center-x="16.970567"
           inkscape:transform-center-y="16.97055"
           d="m 116,182 c -2.216,0 -4,1.784 -4,4 l 0,54.3418 -21.455076,21.45702 c -0.783474,-0.78347 -2.046607,-0.78347 -2.830081,0 L 76.40235,273.11328 c -0.783474,0.78348 -0.783481,2.04465 -7e-6,2.82812 l 1.414065,1.41407 -2.828123,2.82812 c -0.783474,0.78348 -0.783474,2.04466 -7e-6,2.82813 0.783474,0.78347 2.044656,0.78347 2.82813,0 l 2.828123,-2.82813 1.414065,1.41407 c 0.783475,0.78347 2.044649,0.78347 2.828124,-1e-5 l 6.95117,-6.94922 2.121094,2.1211 c 0.391738,0.39173 1.022328,0.39174 1.414065,0 0.391738,-0.39173 0.391731,-1.02232 -7e-6,-1.41406 l -2.121094,-2.1211 2.949222,-2.94922 c 0.783475,-0.78347 0.783482,-2.0466 8e-6,-2.83007 l 22.626952,-22.62695 c 0.80296,-0.80296 1.19184,-1.85654 1.17187,-2.9043 L 120,186 c 0,-2.216 -1.78401,-4 -4,-4 z" />
        <circle
           style="fill:#c0bfbc;fill-opacity:1;stroke:none;stroke-width:8;stroke-linecap:round;stroke-linejoin:round;stroke-dasharray:none"
           id="circle3911"
           cx="116"
           cy="186"
           r="12" />
        <rect
           style="fill:url(#linearGradient6338);fill-opacity:1;stroke:none;stroke-width:7.05534;stroke-linecap:round;stroke-linejoin:round;stroke-dasharray:none"
           id="rect6332"
           width="8"
           height="56"
           x="247.73"
           y="83.681229"
           rx="4"
           ry="4"
           inkscape:transform-center-y="16.97055"
           transform="rotate(45)"
           inkscape:transform-center-x="16.970567" />
        <path
           id="rect6140"
           style="fill:url(#linearGradient6148);fill-opacity:1;stroke:none;stroke-width:7.54247;stroke-linecap:round;stroke-linejoin:round;stroke-dasharray:none"
           d="m 116,180 c -2.216,0 -4,1.784 -4,4 v 54.3418 L 120,240 v -56 c 0,-2.216 -1.784,-4 -4,-4 z"
           sodipodi:nodetypes="ssccss" />
        <rect
           style="fill:#c0bfbc;fill-opacity:1;stroke:none;stroke-width:8;stroke-linecap:round;stroke-linejoin:round;stroke-dasharray:none"
           id="rect5136"
           width="12"
           height="12"
           x="110"
           y="192"
           rx="2"
           ry="2" />
        <circle
           style="fill:url(#linearGradient4002);fill-opacity:1;stroke:none;stroke-width:8;stroke-linecap:round;stroke-linejoin:round;stroke-dasharray:none"
           id="path3857"
           cx="116"
           cy="184"
           r="12" />
        <path
           id="circle4991"
           style="fill:#ffffff;fill-opacity:0.2;stroke:none;stroke-width:8;stroke-linecap:round;stroke-linejoin:round;stroke-dasharray:none"
           d="M 127.94141,182.82422 A 12,12 0 0 1 116,194 12,12 0 0 1 104.07227,183 12,12 0 0 0 104,184 a 12,12 0 0 0 12,12 12,12 0 0 0 12,-12 12,12 0 0 0 -0.0586,-1.17578 z" />
        <path
           id="rect5687"
           style="fill:#9a9996;fill-opacity:1;stroke:none;stroke-width:8;stroke-linecap:round;stroke-linejoin:round;stroke-dasharray:none"
           d="m 110,200 v 2 c 0,1.108 0.892,2 2,2 h 8 c 1.108,0 2,-0.892 2,-2 v -2 c 0,1.108 -0.892,2 -2,2 h -8 c -1.108,0 -2,-0.892 -2,-2 z" />
        <rect
           style="display:inline;fill:url(#linearGradient10781);fill-opacity:1;stroke:none;stroke-width:11.3137;stroke-linecap:round;stroke-linejoin:round;stroke-dasharray:none;enable-background:new"
           id="rect10773"
           width="4"
           height="12"
           x="249.73"
           y="133.68123"
           rx="2"
           ry="2"
           transform="rotate(45)" />
        <rect
           style="display:inline;fill:url(#linearGradient11156);fill-opacity:1;stroke:none;stroke-width:6.53197;stroke-linecap:round;stroke-linejoin:round;stroke-dasharray:none;enable-background:new"
           id="rect11148"
           width="2"
           height="8"
           x="-127.8528"
           y="253.72998"
           rx="1"
           ry="1"
           transform="rotate(-45)" />
        <rect
           style="fill:url(#linearGradient7055);fill-opacity:1;stroke:none;stroke-width:10.328;stroke-linecap:round;stroke-linejoin:round;stroke-dasharray:none"
           id="rect7047"
           width="12"
           height="20"
           x="245.73"
           y="119.68123"
           rx="2"
           ry="2"
           transform="rotate(45)" />
      </g>
      <path
         id="path36385"
         d="m 168,172 a 8,8 0 0 0 -8,8 8,8 0 0 0 8,8 8,8 0 0 0 8,-8 8,8 0 0 0 -8,-8 z m 0,2 a 6,6 0 0 1 6,6 6,6 0 0 1 -6,6 6,6 0 0 1 -6,-6 6,6 0 0 1 6,-6 z m 0,3 a 3,3 0 0 0 -3,3 3,3 0 0 0 3,3 3,3 0 0 0 3,-3 3,3 0 0 0 -3,-3 z m 0,1 a 2,2 0 0 1 2,2 2,2 0 0 1 -2,2 2,2 0 0 1 -2,-2 2,2 0 0 1 2,-2 z m 0,1 a 1,1 0 0 0 -1,1 1,1 0 0 0 1,1 1,1 0 0 0 1,-1 1,1 0 0 0 -1,-1 z"
         style="fill:#241f31" />
    </g>
    <g
       inkscape:groupmode="layer"
       id="layer3"
       inkscape:label="grid"
       style="display:none"
       sodipodi:insensitive="true">
      <circle
         cx="64.000031"
         cy="236"
         r="59.504131"
         id="circle2892"
         style="display:inline;opacity:0.1;vector-effect:none;fill:none;fill-opacity:1;stroke:#000000;stroke-width:0.99;stroke-linecap:butt;stroke-linejoin:miter;stroke-miterlimit:4;stroke-dasharray:0.99, 0.99;stroke-dashoffset:0;stroke-opacity:1;marker:none;marker-start:none;marker-mid:none;marker-end:none;paint-order:normal;enable-background:new" />
      <rect
         ry="7.9292889"
         rx="8.701004"
         y="180.49496"
         x="20.495007"
         height="111.01005"
         width="87.009987"
         id="rect2894"
         style="display:inline;opacity:0.1;vector-effect:none;fill:none;fill-opacity:1;stroke:#000000;stroke-width:0.99;stroke-linecap:butt;stroke-linejoin:miter;stroke-miterlimit:4;stroke-dasharray:0.99, 0.99;stroke-dashoffset:0;stroke-opacity:1;marker:none;marker-start:none;marker-mid:none;marker-end:none;paint-order:normal;enable-background:new" />
      <rect
         ry="7.9238095"
         rx="7.9238095"
         y="184.49524"
         x="12.495266"
         height="103.00952"
         width="103.00952"
         id="rect2896"
         style="display:inline;opacity:0.1;vector-effect:none;fill:none;fill-opacity:1;stroke:#000000;stroke-width:0.99;stroke-linecap:butt;stroke-linejoin:miter;stroke-miterlimit:4;stroke-dasharray:0.99, 0.99;stroke-dashoffset:0;stroke-opacity:1;marker:none;marker-start:none;marker-mid:none;marker-end:none;paint-order:normal;enable-background:new" />
      <rect
         ry="8.701005"
         rx="7.9292889"
         y="200.49496"
         x="8.4950066"
         height="87.010048"
         width="111.01004"
         id="rect2898"
         style="display:inline;opacity:0.1;vector-effect:none;fill:none;fill-opacity:1;stroke:#000000;stroke-width:0.99;stroke-linecap:butt;stroke-linejoin:miter;stroke-miterlimit:4;stroke-dasharray:0.99, 0.99;stroke-dashoffset:0;stroke-opacity:1;marker:none;marker-start:none;marker-mid:none;marker-end:none;paint-order:normal;enable-background:new" />
      <path
         inkscape:connector-curvature="0"
         id="path2900"
         d="M 2.6203015e-5,288.99999 H 128.00003"
         style="display:inline;fill:none;stroke:#62a0ea;stroke-width:2;stroke-linecap:butt;stroke-linejoin:miter;stroke-miterlimit:4;stroke-dasharray:none;stroke-opacity:1;enable-background:new" />
    </g>
  </g>
</svg>
